<svg width="48" height="48" viewBox="0 0 48 48" fill="none" xmlns="http://www.w3.org/2000/svg">
<path d="M17.5762 24.2441C17.5762 24.0293 17.6514 23.8467 17.8125 23.6963L26.4062 15.5107C26.5459 15.3711 26.7285 15.2959 26.9326 15.2959C27.3516 15.2959 27.6738 15.6182 27.6738 16.0371C27.6738 16.2412 27.5879 16.4238 27.4697 16.5635L19.3916 24.2441L27.4697 31.9248C27.5879 32.0537 27.6738 32.2363 27.6738 32.4404C27.6738 32.8701 27.3516 33.1816 26.9326 33.1816C26.7285 33.1816 26.5459 33.1064 26.4062 32.9668L17.8125 24.792C17.6514 24.6416 17.5762 24.459 17.5762 24.2441Z" fill="white"/>
</svg>
