<svg width="24" height="24" viewBox="0 0 24 24" fill="none" xmlns="http://www.w3.org/2000/svg">
<path d="M12 23.0188C6.10254 23.0188 1.22559 18.1418 1.22559 12.2444C1.22559 6.33618 6.0918 1.46997 11.9893 1.46997C17.8975 1.46997 22.7744 6.33618 22.7744 12.2444C22.7744 18.1418 17.8975 23.0188 12 23.0188ZM10.8184 17.4436C11.0977 17.4436 11.334 17.3147 11.5059 17.0461L16.8125 8.74243C16.9199 8.5813 17.0166 8.38794 17.0166 8.21606C17.0166 7.82935 16.6729 7.57153 16.3184 7.57153C16.0928 7.57153 15.8779 7.71118 15.7275 7.95825L10.7861 15.7786L8.26172 12.6741C8.06836 12.4163 7.875 12.3303 7.63867 12.3303C7.27344 12.3303 6.97266 12.6311 6.97266 13.0071C6.97266 13.2004 7.05859 13.3831 7.17676 13.5549L10.0986 17.0461C10.3135 17.3254 10.5391 17.4436 10.8184 17.4436Z" fill="white"/>
</svg>
