<svg width="20" height="18" viewBox="0 0 20 18" fill="none" xmlns="http://www.w3.org/2000/svg">
<path d="M2.98535 17.1777C1.31543 17.1777 0.480469 16.3691 0.480469 14.6992V6.0332C0.480469 4.37207 1.31543 3.55469 2.98535 3.55469H5.6748V2.5791C5.6748 1.14648 6.52734 0.43457 7.88965 0.43457H12.0996C13.5234 0.43457 14.3232 1.14648 14.3232 2.5791V3.55469H17.0127C18.6914 3.55469 19.5176 4.37207 19.5176 6.0332V14.6992C19.5176 16.3691 18.6914 17.1777 17.0127 17.1777H2.98535ZM6.72949 2.50879V3.55469H13.2686V2.50879C13.2686 1.82324 12.8467 1.43652 12.126 1.43652H7.87207C7.15137 1.43652 6.72949 1.82324 6.72949 2.50879ZM1.57031 6.07715V7.42188C4.09277 8.30957 6.91406 8.72266 9.99902 8.72266C13.084 8.72266 15.9053 8.30957 18.4277 7.42188V6.07715C18.4277 5.09277 17.9619 4.63574 17.0039 4.63574H2.99414C2.03613 4.63574 1.57031 5.09277 1.57031 6.07715ZM2.99414 16.1055H17.0039C17.9619 16.1055 18.4277 15.6396 18.4277 14.6553V8.56445C16.4766 9.17969 14.4111 9.54883 12.249 9.69824V10.4014C12.249 10.9727 11.915 11.3066 11.335 11.3066H8.66309C8.08301 11.3066 7.74902 10.9727 7.74902 10.4014V9.69824C5.58691 9.54883 3.52148 9.17969 1.57031 8.56445V14.6553C1.57031 15.6396 2.03613 16.1055 2.99414 16.1055Z" fill="white"/>
</svg>
