<svg width="20" height="19" viewBox="0 0 20 19" fill="none" xmlns="http://www.w3.org/2000/svg">
<path d="M9.11328 18.9092C8.48926 18.9092 8.04102 18.54 7.8916 17.9336L7.50488 16.2373L7.07422 16.0879L5.60645 17.002C5.0791 17.3447 4.49023 17.2656 4.05078 16.8262L2.82031 15.5957C2.37207 15.1562 2.30176 14.5674 2.63574 14.04L3.55859 12.5723L3.40918 12.1592L1.72168 11.7725C1.11523 11.623 0.746094 11.166 0.746094 10.5508V8.80176C0.746094 8.18652 1.10645 7.72949 1.72168 7.58008L3.3916 7.17578L3.55859 6.7627L2.63574 5.29492C2.29297 4.76758 2.37207 4.1875 2.81152 3.73926L4.05078 2.5C4.48145 2.06934 5.06152 1.99023 5.59766 2.32422L7.06543 3.23828L7.50488 3.08008L7.8916 1.38379C8.04102 0.768555 8.48926 0.408203 9.11328 0.408203H10.8887C11.5039 0.408203 11.9609 0.768555 12.1104 1.38379L12.4971 3.08008L12.9277 3.23828L14.3955 2.32422C14.9316 1.99023 15.5117 2.06934 15.9512 2.5L17.1816 3.73926C17.6299 4.1875 17.7002 4.76758 17.3662 5.29492L16.4346 6.7627L16.6016 7.17578L18.2803 7.58008C18.8867 7.72949 19.2559 8.18652 19.2559 8.80176V10.5508C19.2559 11.166 18.8867 11.623 18.2803 11.7725L16.584 12.1592L16.4346 12.5723L17.3574 14.04C17.6914 14.5674 17.6211 15.1562 17.1729 15.5957L15.9424 16.8262C15.5029 17.2656 14.9141 17.3447 14.3867 17.002L12.9189 16.0879L12.4971 16.2373L12.1104 17.9336C11.9609 18.54 11.5039 18.9092 10.8887 18.9092H9.11328ZM9.22754 17.8457H10.7744C10.9854 17.8457 11.0996 17.7578 11.1348 17.5557L11.6445 15.4199C12.1367 15.2881 12.585 15.1035 12.9365 14.9014L14.7998 16.0615C14.9668 16.167 15.125 16.1494 15.2832 16L16.3555 14.9277C16.4961 14.7783 16.5137 14.6289 16.3994 14.4531L15.248 12.5898C15.4326 12.2471 15.626 11.79 15.7578 11.2979L17.9023 10.7969C18.0957 10.7617 18.1924 10.6475 18.1924 10.4365V8.90723C18.1924 8.69629 18.1045 8.58203 17.9023 8.53809L15.7666 8.03711C15.6348 7.52734 15.415 7.06152 15.2568 6.73633L16.4082 4.88184C16.5225 4.69727 16.5137 4.54785 16.3643 4.39844L15.292 3.33496C15.1338 3.18555 14.9844 3.16797 14.7998 3.27344L12.9453 4.4248C12.5762 4.24023 12.1367 4.03809 11.6445 3.91504L11.1348 1.76172C11.0996 1.55957 10.9854 1.47168 10.7744 1.47168H9.22754C9.0166 1.47168 8.90234 1.56836 8.86719 1.76172L8.36621 3.89746C7.8916 4.03809 7.39941 4.23145 7.03906 4.41602L5.19336 3.27344C5.00879 3.16797 4.85938 3.18555 4.70117 3.33496L3.62891 4.39844C3.47949 4.54785 3.4707 4.69727 3.58496 4.88184L4.73633 6.73633C4.58691 7.06152 4.36719 7.53613 4.23535 8.03711L2.09961 8.53809C1.89746 8.58203 1.80078 8.69629 1.80078 8.90723V10.4365C1.80078 10.6475 1.90625 10.7617 2.09961 10.7969L4.24414 11.2979C4.36719 11.7812 4.57812 12.2471 4.74512 12.5898L3.59375 14.4531C3.47949 14.6289 3.49707 14.7783 3.64648 14.9277L4.70996 16C4.86816 16.1494 5.02637 16.167 5.19336 16.0615L7.05664 14.9014C7.41699 15.1035 7.87402 15.2881 8.35742 15.4199L8.86719 17.5557C8.90234 17.749 9.0166 17.8457 9.22754 17.8457ZM10.001 13.0205C8.16406 13.0205 6.64355 11.5 6.64355 9.6543C6.64355 7.82617 8.16406 6.31445 10.001 6.31445C11.8467 6.31445 13.3584 7.82617 13.3584 9.6543C13.3584 11.5 11.8467 13.0205 10.001 13.0205ZM10.001 11.9658C11.249 11.9658 12.2949 10.9111 12.2949 9.6543C12.2949 8.40625 11.249 7.36035 10.001 7.36035C8.74414 7.36035 7.69824 8.40625 7.69824 9.6543C7.69824 10.9199 8.74414 11.9658 10.001 11.9658Z" fill="white"/>
</svg>
